<?xml version="1.0" encoding="utf-8"?>
<!-- Generator: Adobe Illustrator 26.3.1, SVG Export Plug-In . SVG Version: 6.00 Build 0)  -->
<svg version="1.1" xmlns="http://www.w3.org/2000/svg" xmlns:xlink="http://www.w3.org/1999/xlink" x="0px" y="0px"
	 viewBox="0 0 1280 1024" style="enable-background:new 0 0 1280 1024;" xml:space="preserve">
<style type="text/css">
	.st0{fill:url(#SVGID_1_);}
	.st1{fill:#56C6DE;}
	.st2{fill:none;stroke:#56C6DE;stroke-width:18;stroke-miterlimit:10;}
</style>
<g id="Diamond">
	<g>
		<radialGradient id="SVGID_1_" cx="660.0659" cy="560.8878" r="450.7475" gradientUnits="userSpaceOnUse">
			<stop  offset="0" style="stop-color:#08394E"/>
			<stop  offset="1" style="stop-color:#0B1A2C"/>
		</radialGradient>
		<path class="st0" d="M992.34,193.69H327.79L139,445.4l521.07,482.69l521.07-482.67L992.34,193.69z"/>
	</g>
</g>
<g id="S">
	<g>
		<polygon class="st1" points="478.25,360.42 476.94,487.9 529.25,540.2 547.39,540.2 547.39,534.9 570.47,534.9 570.47,557.99 
			547.39,557.99 547.39,552.71 524.08,552.71 464.44,493.07 464.44,358.45 		"/>
		<polyline class="st1" points="778.34,356.25 668.15,357.99 576.8,357.99 558.52,376.26 558.52,458.09 576.8,476.36 788.57,476.36 
			840.87,528.69 840.85,554.7 840.74,555.89 805.58,591.06 805.58,644 773.27,682.01 756.64,682.16 691.34,682.52 691.27,677.24 
			668.18,677.54 668.48,700.61 691.57,700.31 691.5,695.02 758.27,695.14 780.14,695.06 818.08,649.17 818.08,597.31 818.21,596.12 
			853.35,560.95 853.38,523.5 793.74,463.87 581.97,463.87 571.03,452.91 571.03,381.44 581.97,370.49 766.01,370.49 		"/>
		<polygon class="st1" points="618.73,492.66 618.73,515.74 641.82,515.74 641.82,510.45 751.22,510.45 777.56,536.79 
			777.56,551.04 800.63,551.04 800.63,527.96 786.4,527.96 756.39,497.96 641.82,497.96 641.82,492.66 		"/>
		<polyline class="st1" points="703.75,782.05 705.95,782.05 705.95,759.17 683.07,759.17 683.07,782.05 690.98,782.05 		"/>
		<g>
			<g>
				<polyline class="st1" points="541.28,653.9 540.57,588.28 482.49,587.92 481.94,678.89 569.99,802.54 607.41,802.54 
					642.38,767.57 692.57,767.55 702.25,779.94 647.46,779.95 612.52,814.94 560.31,814.92 469.41,684 470.07,575.34 553.15,575.85 
					552.74,641.4 				"/>
			</g>
			<polygon class="st1" points="588.74,790.16 605.82,774.65 590.3,757.56 586.39,761.11 513.49,665.79 514.62,626.62 
				525.17,617.04 509.66,599.96 492.57,615.48 502.14,626.01 500.11,668.4 577.14,769.51 573.22,773.07 			"/>
		</g>
		<g>
			<g>
				<polygon class="st1" points="778.42,356.32 778.98,436.98 837.05,437.41 837.73,346.43 749.82,222.68 712.41,222.63 
					677.4,257.56 627.2,257.51 617.54,245.11 672.32,245.17 707.31,210.23 759.52,210.31 855.5,341.37 854.71,450.03 766.38,449.39 
					766.01,370.49 				"/>
			</g>
			<polygon class="st1" points="734.69,233.85 717.59,249.35 733.09,266.46 737,262.91 809.79,358.32 808.61,397.49 798.04,407.06 
				813.54,424.16 830.65,408.66 821.09,398.11 823.17,355.73 746.27,254.52 750.19,250.96 			"/>
		</g>
		<polyline class="st1" points="541.28,653.9 740.05,653.9 758.32,635.62 758.32,553.79 740.05,535.51 614.55,535.51 613.36,535.39 
			578.2,500.23 542.9,500.23 511.27,468.6 511.27,367.89 542.9,336.26 617.01,336.26 617.01,341.55 640.08,341.55 640.08,318.48 
			617.01,318.48 617.01,323.76 537.72,323.76 498.77,362.72 498.77,473.77 537.72,512.73 571.95,512.73 573.14,512.85 
			608.31,548.01 734.87,548.02 745.82,558.96 745.82,629.38 745.21,631.06 734.87,641.4 552.74,641.4 		"/>
		<polygon class="st1" points="547.23,278.64 547.23,301.71 570.32,301.71 570.32,296.43 679.72,296.43 706.06,322.77 
			706.06,337.02 729.13,337.02 729.13,313.93 714.9,313.93 684.89,283.93 570.32,283.93 570.32,278.64 		"/>
		<polyline class="st1" points="626.35,261.67 628.55,261.67 628.55,238.79 605.67,238.79 605.67,261.67 613.58,261.67 		"/>
		<g>
			<g>
				<polyline class="st1" points="843.43,623.51 841.23,623.5 841.37,600.61 864.25,600.75 864.11,623.63 856.2,623.59 				"/>
				<g>
					<polyline class="st1" points="668.26,802.15 757.78,802.69 846.58,679.58 846.34,623.53 858.84,623.6 859.08,684.76 
						767.39,815.14 668.18,814.56 					"/>
				</g>
			</g>
			<polyline class="st1" points="653.28,816.88 651.09,816.86 651.23,793.98 674.1,794.12 673.96,817 666.05,816.95 			"/>
		</g>
		<g>
			<polyline class="st1" points="654.55,223.81 565.02,223.81 478.93,347.46 477.55,403.51 464.39,403.51 464.44,342.35 
				555.34,211.43 654.55,211.4 			"/>
		</g>
		<polyline class="st1" points="669.43,209 671.63,209 671.63,231.88 648.75,231.88 648.75,209 656.66,209 		"/>
		<polygon class="st1" points="768.38,742.67 768.17,719.59 745.08,719.8 745.13,725.09 635.73,726.08 609.16,699.99 609.03,685.73 
			585.95,685.94 586.16,709.03 600.39,708.9 630.68,738.63 745.25,737.58 745.29,742.88 		"/>
	</g>
</g>
<g id="Diamond_Outline">
	<polygon class="st2" points="327.79,193.69 139,445.4 660.07,928.09 1181.13,445.42 992.34,193.69 	"/>
</g>
</svg>
